<?xml version="1.0" encoding="UTF-8"?>
<svg xmlns="http://www.w3.org/2000/svg" viewBox="0 0 713.17 214.9">
  <defs>
    <linearGradient id="fadeGradient" x1="0" y1="0" x2="0" y2="1">
      <stop offset="0%" stop-color="white" stop-opacity="1" />
      <stop offset="100%" stop-color="white" stop-opacity="0" />
    </linearGradient>
    <mask id="fadeMask">
      <rect width="100%" height="100%" fill="url(#fadeGradient)" />
    </mask>
  </defs>

  <g mask="url(#fadeMask)">
    <path fill="#fff" d="M159.52,210.45h-21.44v-34.44h-36.16v34.44h-21.44v-86h21.44v33.12h36.16v-33.12h21.44v86ZM140.08,208.45h17.44v-82h-17.44v33.12h-40.16v-33.12h-17.44v82h17.44v-34.44h40.16v34.44Z"/>
    <path fill="#fff" d="M344.74,210.45h-23.32l-16.2-23.4h-16.36v23.4h-21.44v-86h37.36c23.12,0,37.48,12.06,37.48,31.48,0,12.33-5.94,21.85-16.77,26.94l19.25,27.58ZM322.46,208.45h18.44l-18.45-26.43,1.13-.48c10.75-4.61,16.67-13.7,16.67-25.6,0-18.18-13.59-29.48-35.48-29.48h-35.36v82h17.44v-23.4h19.4l16.2,23.4ZM303.7,171.57h-16.84v-31.28h16.84c12.17,0,18.88,5.55,18.88,15.64s-6.88,15.64-18.88,15.64ZM288.86,169.57h14.84c10.88,0,16.88-4.84,16.88-13.64s-5.84-13.64-16.88-13.64h-14.84v27.28Z"/>
    <path fill="#fff" d="M398.43,211.89c-24.81,0-39.04-14.36-39.04-39.4v-48.04h21.44v47.32c0,14.51,5.8,21.56,17.72,21.56s17.72-7.05,17.72-21.56v-47.32h21.2v48.04c0,25.04-14.23,39.4-39.04,39.4ZM361.39,126.45v46.04c0,23.77,13.5,37.4,37.04,37.4s37.04-13.63,37.04-37.4v-46.04h-17.2v45.32c0,15.63-6.63,23.56-19.72,23.56s-19.72-7.93-19.72-23.56v-45.32h-17.44Z"/>
    <path fill="#fff" d="M533.38,210.45h-25.22l-26.46-32.49-10.22,10.65v21.84h-21.32v-86h21.32v37.73l35.77-37.73h24.32l-35.78,38.49,37.59,47.51ZM509.11,208.45h20.14l-36.09-45.61,33.82-36.39h-18.87l-38.63,40.75v-40.75h-17.32v82h17.32v-20.64l12.34-12.87,27.29,33.51Z"/>
    <path fill="#fff" d="M261.45,210.45h-97.28l38.33-86h20.62l.26.59,38.07,85.4ZM167.26,208.45h91.11l-36.55-82h-18.02l-36.55,82ZM235.64,196.22h-45.65l22.83-55.58,22.83,55.58ZM192.97,194.22h39.68l-19.84-48.31-19.84,48.31Z"/>
    <path fill="#fff" d="M632.68,210.45h-97.28l38.33-86h20.62l.26.59,38.07,85.4ZM538.49,208.45h91.11l-36.55-82h-18.02l-36.55,82ZM606.87,196.22h-45.65l22.83-55.58,22.83,55.58ZM564.2,194.22h39.68l-19.84-48.31-19.84,48.31Z"/>
    <path fill="#fff" d="M48.32,90.45h-21.44V22.29H0V4.45h75.2v17.84h-26.88v68.16ZM28.88,88.45h17.44V20.29h26.88V6.45H2v13.84h26.88v68.16Z"/>
    <path fill="#fff" d="M121.32,91.89c-13.07,0-25.01-4.49-33.61-12.63-8.61-8.15-13.35-19.44-13.35-31.8s4.74-23.66,13.35-31.81c8.6-8.15,20.54-12.63,33.61-12.63,27.21,0,46.96,18.69,46.96,44.44s-19.75,44.44-46.96,44.44ZM121.32,5.01c-26.05,0-44.96,17.85-44.96,42.44s18.91,42.44,44.96,42.44,44.96-17.85,44.96-42.44S147.37,5.01,121.32,5.01ZM121.32,75.33c-15.81,0-27.28-11.72-27.28-27.88s11.47-27.88,27.28-27.88,27.28,11.72,27.28,27.88-11.47,27.88-27.28,27.88ZM121.32,21.57c-14.65,0-25.28,10.88-25.28,25.88s10.63,25.88,25.28,25.88,25.28-10.88,25.28-25.88-10.63-25.88-25.28-25.88Z"/>
    <path fill="#fff" d="M223.39,90.45h-44.44V4.45h42.04c20.54,0,32.8,8.54,32.8,22.84,0,7.66-3.55,14.21-9.82,18.27,8.94,3.63,14.01,11.17,14.01,20.97,0,15.42-12.29,23.92-34.6,23.92ZM180.96,88.45h42.44c21.02,0,32.6-7.78,32.6-21.92,0-9.74-5.21-16.78-14.67-19.81l-2.27-.73,2.11-1.11c6.85-3.61,10.63-9.85,10.63-17.59,0-13.24-11.23-20.84-30.8-20.84h-40.04v82ZM221.95,75.81h-23.68v-22.76h23.68c13.62,0,16.48,6.22,16.48,11.44,0,7.51-5.54,11.32-16.48,11.32ZM200.27,73.81h21.68c12.98,0,14.48-5.32,14.48-9.32,0-6.35-4.74-9.44-14.48-9.44h-21.68v18.76ZM218.59,40.89h-20.32v-21.8h20.32c12.93,0,15.64,5.89,15.64,10.84,0,4.09-2.03,10.96-15.64,10.96ZM200.27,38.89h18.32c9.05,0,13.64-3.01,13.64-8.96s-4.59-8.84-13.64-8.84h-18.32v17.8Z"/>
    <path fill="#fff" d="M290.62,90.45h-21.44V4.45h21.44v86ZM271.18,88.45h17.44V6.45h-17.44v82Z"/>
    <path fill="#fff" d="M335.84,91.89c-13.36,0-27.02-3.9-34.81-9.93l-.62-.48,7.43-16.48.99.73c7.25,5.28,17.65,8.57,27.13,8.57s15.2-2.84,15.2-8c0-5.73-8.1-7.61-17.49-9.79-13.97-3.24-31.35-7.28-31.35-26.32,0-16.5,14.29-27.16,36.4-27.16,11.22,0,22.04,2.77,29.69,7.59l.71.45-6.75,16.59-.99-.56c-7.43-4.23-15.31-6.47-22.78-6.47-9.65,0-14.96,3.05-14.96,8.6s8.09,7.47,17.45,9.61c13.98,3.2,31.39,7.18,31.39,26.02,0,12.47-9.6,27.04-36.64,27.04ZM302.88,80.85c7.56,5.51,20.38,9.04,32.96,9.04,21.04,0,34.64-9.83,34.64-25.04,0-17.25-15.85-20.88-29.83-24.08-10.2-2.33-19.01-4.35-19.01-11.56,0-3.19,1.65-10.6,16.96-10.6,7.48,0,15.34,2.13,22.78,6.18l5.26-12.93c-7.29-4.36-17.41-6.85-27.91-6.85-25.36,0-34.4,13-34.4,25.16,0,17.45,15.83,21.13,29.8,24.38,10.21,2.37,19.04,4.42,19.04,11.74,0,3.73-2.23,10-17.2,10-9.46,0-19.79-3.14-27.3-8.25l-5.77,12.81Z"/>
    <path fill="#fff" d="M461.53,90.45h-21.44v-34.44h-36.16v34.44h-21.44V4.45h21.44v33.12h36.16V4.45h21.44v86ZM442.09,88.45h17.44V6.45h-17.44v33.12h-40.16V6.45h-17.44v82h17.44v-34.44h40.16v34.44Z"/>
    <path fill="#fff" d="M498.9,90.45h-21.44V4.45h21.44v86ZM479.46,88.45h17.44V6.45h-17.44v82Z"/>
    <path fill="#fff" d="M611.25,90.45h-20.24l-.11-47.78-23.16,38.9h-9.89l-23.04-37.87v46.75h-20.24V4.45h17.64l30.87,51.25,30.4-51.25h17.53l.25,86ZM593,88.45h16.24l-.23-82h-14.39l-31.52,53.15-32.01-53.15h-14.51v82h16.24v-51.89l26.16,43.01h7.63l26.28-44.14.13,53.02Z"/>
    <path fill="#fff" d="M713.17,90.45h-97.28l38.33-86h20.62l.26.59,38.07,85.4ZM618.97,88.45h91.11l-36.55-82h-18.02l-36.55,82ZM687.36,76.22h-45.65l22.83-55.58,22.83,55.58ZM644.69,74.22h39.68l-19.84-48.31-19.84,48.31Z"/>
  </g>
</svg>
